<?xml version="1.0" encoding="UTF-8" standalone="no"?>
<!-- Created with Inkscape (http://www.inkscape.org/) -->

<svg
   width="800"
   height="800"
   viewBox="0 0 211.66667 211.66666"
   version="1.1"
   id="svg1"
   xml:space="preserve"
   inkscape:version="1.4 (86a8ad7, 2024-10-11)"
   sodipodi:docname="laravel-logo.svg"
   xmlns:inkscape="http://www.inkscape.org/namespaces/inkscape"
   xmlns:sodipodi="http://sodipodi.sourceforge.net/DTD/sodipodi-0.dtd"
   xmlns="http://www.w3.org/2000/svg"
   xmlns:svg="http://www.w3.org/2000/svg"><sodipodi:namedview
     id="namedview1"
     pagecolor="#ffffff"
     bordercolor="#000000"
     borderopacity="0.25"
     inkscape:showpageshadow="2"
     inkscape:pageopacity="0.0"
     inkscape:pagecheckerboard="0"
     inkscape:deskcolor="#d1d1d1"
     inkscape:document-units="px"
     inkscape:zoom="0.52473018"
     inkscape:cx="221.066"
     inkscape:cy="469.76525"
     inkscape:window-width="1920"
     inkscape:window-height="1051"
     inkscape:window-x="-9"
     inkscape:window-y="-9"
     inkscape:window-maximized="1"
     inkscape:current-layer="g3" /><defs
     id="defs1" /><g
     inkscape:label="layer"
     inkscape:groupmode="layer"
     id="layer1"><circle
       style="fill:#f05340;fill-opacity:1;stroke-width:0.327919"
       id="path1"
       cx="105.83334"
       cy="105.83334"
       r="105.83334"
       inkscape:label="bg" /><g
       id="g3"
       inkscape:label="logo"
       transform="matrix(1.1,0,0,1.0999999,-10.583334,-10.612436)"><path
         d="m 153.37508,122.3887 c 10.27476,0 18.60408,8.32883 18.60408,18.60295 v 7.48321 c 0,9.04249 -3.94782,17.63442 -10.80916,23.52466 -12.94388,11.11193 -31.46805,16.54257 -55.36393,16.54257 -23.891751,0 -42.403379,-5.42876 -55.325917,-16.5383 C 43.628711,166.11376 39.6875,157.52829 39.6875,148.49337 v -7.50172 c 0,-10.27412 8.329333,-18.60295 18.604086,-18.60295 z m -48.40775,-99.154462 0.84148,-0.05663 c 3.13951,0 5.73413,2.332846 6.14476,5.359553 l 0.0562,0.841436 -0.007,6.192722 28.94387,0.0043 c 10.27475,0 18.60408,8.328833 18.60408,18.602968 v 37.243892 c 0,10.274131 -8.32933,18.602961 -18.60408,18.602961 H 70.665023 c -10.274752,0 -18.604083,-8.32883 -18.604083,-18.602961 v -37.24398 c 0,-10.274135 8.329331,-18.602966 18.604083,-18.602966 l 28.9359,-0.0043 0.007,-6.192721 c 0,-3.139318 2.332977,-5.733771 5.359877,-6.144382 l 0.84147,-0.05663 z m -17.771219,37.14524 c -5.704946,0 -10.329719,4.624497 -10.329719,10.329103 0,5.704607 4.624773,10.329103 10.329719,10.329103 5.704947,0 10.329732,-4.624496 10.329732,-10.329103 0,-5.704606 -4.624785,-10.329103 -10.329732,-10.329103 z m 37.148119,0 c -5.70496,0 -10.32973,4.624497 -10.32973,10.329103 0,5.704607 4.62477,10.329103 10.32973,10.329103 5.70495,0 10.32972,-4.624496 10.32972,-10.329103 0,-5.704606 -4.62477,-10.329103 -10.32972,-10.329103 z"
         id="🎨-Color"
         style="fill:#ffffff;fill-opacity:1;fill-rule:nonzero;stroke:none;stroke-width:8.26824"
         inkscape:label="bot" /><path
         fill-rule="evenodd"
         clip-rule="evenodd"
         fill="#ffffff"
         d="m 54.511508,150.94648 c 12.373823,-5.40504 20.611209,-8.9965 24.747574,-10.73892 11.772729,-4.94272 14.247486,-5.79614 15.838386,-5.8317 0.353542,0 1.131325,0.071 1.661619,0.49783 0.42424,0.35559 0.530313,0.81787 0.601022,1.17345 0.07077,0.35559 0.141417,1.10234 0.07077,1.67129 -0.636366,6.75624 -3.393946,23.14913 -4.808075,30.68772 -0.601012,3.20035 -1.767682,4.26713 -2.898997,4.37381 -2.474746,0.21337 -4.348501,-1.63573 -6.717174,-3.20034 -3.747479,-2.4536 -5.833338,-3.98266 -9.474764,-6.40069 -4.207064,-2.77364 -1.484848,-4.3027 0.91921,-6.79185 0.636356,-0.64007 11.489905,-10.59672 11.70202,-11.48571 0.03539,-0.10664 0.03539,-0.53337 -0.212115,-0.74672 -0.24748,-0.21336 -0.601012,-0.14224 -0.883846,-0.0712 -0.388886,0.0712 -6.328287,4.05375 -17.888911,11.91239 -1.696984,1.17345 -3.217186,1.7424 -4.596001,1.70684 -1.520213,-0.0357 -4.41922,-0.85344 -6.611153,-1.5646 -2.651527,-0.85342 -4.772741,-1.31571 -4.59598,-2.8092 0.106063,-0.78231 1.166669,-1.56462 3.146487,-2.38248 z"
         id="path2"
         style="fill:#f05340;fill-opacity:1;stroke-width:0.354564"
         inkscape:label="telegram" /><g
         style="fill:none;stroke:#f05340;stroke-width:2;stroke-linecap:round;stroke-linejoin:round;stroke-opacity:1"
         id="g1"
         transform="matrix(2.0004152,0,0,2.0004153,110.87594,127.95697)"><path
           d="m 3,17 8,5 7,-4 V 10 L 14,7.5 18,5 22,7.5 v 4 L 11,18 7,15.5 V 8 L 3,5.5 Z"
           id="path2-2"
           style="stroke:#f05340;stroke-opacity:1" /><path
           d="m 11,18 v 4"
           id="path3"
           style="stroke:#f05340;stroke-opacity:1" /><path
           d="m 7,15.5 7,-4"
           id="path4"
           style="stroke:#f05340;stroke-opacity:1" /><path
           d="m 14,7.5 v 4"
           id="path5"
           style="stroke:#f05340;stroke-opacity:1" /><path
           d="M 14,11.5 18,14"
           id="path6"
           style="stroke:#f05340;stroke-opacity:1" /><path
           d="M 11,13 V 5.5 L 7,3 3,5.5"
           id="path7"
           style="stroke:#f05340;stroke-opacity:1" /><path
           d="M 7,8 11,5.5"
           id="path8"
           style="stroke:#f05340;stroke-opacity:1" /><path
           d="M 18,10 22,7.5"
           id="path9"
           style="stroke:#f05340;stroke-opacity:1" /></g></g></g></svg>
